# xmcd
#
# Track frame offsets: 
#        150
#        20959
#        38257
#        53693
#        71977
#        84928
#        104619
#        125957
#        138741
#        155619
#        170548
#        187054
#        203591
#        219827
#        233397
#        253869
#        268445
#        282663
#        302249
#        319642
#
# Disc length: 4457 seconds
#
# Revision: 0
# Processed by: cddbd v1.5.2PL0 Copyright (c) Steve Scherf et al.
# Submitted via: ExactAudioCopy v1.1
#
DISCID=33116714
DTITLE=Mikel Knight - Urban Cowboy
DYEAR=2015
DGENRE=Crossover
TTITLE0=Cowboy Way
TTITLE1=Bring It On  
TTITLE2=Last Night In Texas
TTITLE3=We Don't Give A Truck
TTITLE4=Raisin' A 'Lil Hell (feat. Koolwhip)
TTITLE5=Rock Star Outlaw
TTITLE6=It Didn't Come Like That 
TTITLE7=Women Over Whiskey
TTITLE8=The Lights Come On
TTITLE9=Take Off (Shine)
TTITLE10=Till The Morning 
TTITLE11=I Believe 
TTITLE12=Walk Alone 
TTITLE13=Fly Away 
TTITLE14=Roses and Mayhem
TTITLE15=Cold As The Lie
TTITLE16=Country Countdown
TTITLE17=Rebel Flag Bikini Queen
TTITLE18=Country Girl Shuffle 
TTITLE19=Last Night In Texas (Remix)
EXTD=
EXTT0=
EXTT1=
EXTT2=
EXTT3=
EXTT4=
EXTT5=
EXTT6=
EXTT7=
EXTT8=
EXTT9=
EXTT10=
EXTT11=
EXTT12=
EXTT13=
EXTT14=
EXTT15=
EXTT16=
EXTT17=
EXTT18=
EXTT19=
PLAYORDER=
